<?xml version="1.0" standalone="no"?>
<!DOCTYPE svg PUBLIC "-//W3C//DTD SVG 20010904//EN"
 "http://www.w3.org/TR/2001/REC-SVG-20010904/DTD/svg10.dtd">
<svg version="1.0" xmlns="http://www.w3.org/2000/svg"
 width="1024.000000pt" height="1024.000000pt" viewBox="0 0 1024.000000 1024.000000"
 preserveAspectRatio="xMidYMid meet">

<g transform="translate(0.000000,1024.000000) scale(0.100000,-0.100000)"
fill="#000000" stroke="none">
<path d="M4975 10234 c-44 -2 -147 -8 -230 -14 -2051 -147 -3824 -1526 -4475
-3480 -115 -344 -194 -703 -237 -1081 -25 -221 -25 -869 0 -1084 102 -853 376
-1609 829 -2288 635 -950 1559 -1657 2638 -2017 1057 -353 2196 -351 3253 4
1653 556 2916 1928 3332 3619 111 455 151 818 142 1320 -5 336 -19 490 -68
777 -372 2193 -2156 3910 -4364 4199 -250 33 -615 53 -820 45z m365 -864 c700
-46 1337 -241 1916 -586 304 -180 632 -433 673 -517 46 -94 7 -228 -79 -272
l-30 -15 -106 85 c-479 386 -1076 669 -1674 795 -303 64 -469 82 -805 86 -171
2 -348 0 -395 -6 -229 -27 -274 -33 -396 -55 -686 -124 -1326 -426 -1884 -889
-93 -77 -376 -356 -457 -451 -237 -278 -411 -542 -567 -860 -268 -545 -400
-1080 -419 -1708 -8 -231 20 -600 58 -785 l13 -62 -32 0 c-91 0 -183 65 -210
148 -21 65 -63 349 -76 512 -14 169 -14 563 0 695 45 441 106 719 237 1085
241 676 665 1295 1203 1760 202 174 270 224 530 395 32 21 90 56 180 108 145
84 407 206 575 269 223 83 523 169 695 199 397 70 718 90 1050 69z m70 -524
c295 -15 578 -65 900 -157 424 -122 840 -328 1210 -598 83 -60 210 -163 210
-169 0 -4 -76 -58 -168 -120 -221 -149 -354 -243 -546 -382 -87 -63 -171 -124
-186 -135 -15 -11 -92 -67 -170 -125 -189 -140 -211 -152 -280 -147 -62 3 -80
12 -251 116 -486 295 -1079 436 -1644 391 -259 -21 -449 -59 -680 -135 -690
-229 -1277 -727 -1615 -1371 -221 -421 -332 -905 -317 -1378 3 -99 11 -227 18
-284 11 -84 10 -109 0 -140 -34 -94 -107 -146 -205 -146 -54 1 -255 24 -361
43 l-39 6 -18 110 c-52 319 -67 759 -37 1035 11 100 30 250 35 275 2 11 9 49
14 85 19 114 98 414 144 545 147 418 304 718 556 1065 135 186 224 288 413
475 317 313 642 546 1022 733 447 221 845 336 1370 398 72 8 412 21 475 17 25
-1 92 -5 150 -7z m-314 -1881 c213 -28 364 -63 539 -125 354 -124 692 -338
971 -615 152 -151 329 -367 359 -438 18 -43 187 -577 345 -1092 32 -104 73
-235 90 -290 17 -55 47 -149 65 -210 18 -60 47 -155 65 -210 17 -55 60 -192
95 -305 75 -243 154 -495 236 -752 33 -104 57 -192 54 -198 -11 -18 -49 -11
-121 24 -53 25 -73 41 -82 62 -6 16 -31 90 -57 164 -26 74 -60 173 -77 220
-59 165 -77 216 -123 350 -26 74 -57 164 -70 200 -13 36 -58 164 -100 285
-107 309 -122 346 -157 401 -41 66 -373 393 -460 454 -90 64 -153 83 -383 119
-104 17 -228 37 -275 46 -47 8 -168 29 -270 45 -102 17 -261 44 -355 60 -93
17 -267 46 -385 66 -118 20 -264 45 -325 55 -141 24 -218 24 -287 0 -169 -58
-291 -206 -319 -384 -33 -214 93 -484 276 -592 22 -13 153 -53 290 -90 138
-37 295 -79 350 -95 55 -16 273 -77 485 -135 702 -193 656 -178 746 -246 118
-87 132 -122 561 -1389 243 -717 225 -662 213 -674 -6 -6 -43 -13 -83 -17
-100 -11 -320 -35 -522 -58 -93 -11 -192 -22 -220 -25 -27 -3 -97 -11 -155
-18 -58 -7 -127 -13 -155 -13 l-50 0 -85 161 c-318 602 -760 1130 -1180 1411
-438 293 -1128 465 -1698 423 -134 -9 -268 -28 -351 -49 -98 -25 -84 -36 -130
107 -89 280 -122 485 -123 762 -1 198 6 279 37 471 124 751 578 1412 1230
1789 329 191 644 300 990 345 146 18 463 19 601 0z m-484 -1775 c57 -11 190
-33 295 -50 106 -17 230 -37 275 -46 46 -9 202 -35 348 -59 1050 -174 1007
-164 1095 -235 77 -61 309 -286 373 -360 65 -76 80 -103 112 -200 10 -30 46
-134 80 -230 90 -255 271 -771 280 -800 12 -36 107 -301 116 -324 7 -18 4 -17
-27 5 -18 13 -57 38 -86 56 -73 44 -142 102 -158 132 -7 14 -74 179 -149 366
-75 187 -141 349 -146 360 -5 11 -46 112 -91 225 -45 113 -99 230 -119 260
-87 129 -280 304 -388 352 -23 10 -189 46 -370 79 -180 32 -449 81 -597 108
-149 27 -354 65 -455 85 -458 87 -453 87 -527 30 -100 -76 -92 -250 15 -320
14 -9 194 -61 401 -116 1408 -373 1340 -351 1486 -461 189 -142 279 -316 485
-937 184 -553 490 -1587 490 -1654 0 -19 -9 -45 -21 -59 -23 -31 -59 -41 -184
-57 -49 -6 -121 -15 -160 -21 -38 -5 -198 -23 -355 -39 -157 -16 -325 -34
-375 -40 -49 -5 -119 -12 -155 -16 -36 -3 -76 -8 -90 -9 -138 -16 -147 -15
-225 5 -136 35 -227 113 -306 260 -234 436 -583 869 -929 1151 -382 311 -762
488 -1230 570 -168 30 -444 32 -570 5 -152 -33 -230 -3 -280 107 -15 34 -27
63 -26 65 6 6 146 33 241 46 394 57 875 4 1289 -141 286 -101 445 -188 674
-369 350 -277 760 -803 1004 -1288 34 -66 73 -133 86 -148 42 -46 50 -46 412
-4 69 8 170 20 225 25 55 6 138 15 185 21 136 16 261 30 315 36 155 16 196 35
216 104 10 32 7 49 -24 141 -81 236 -360 1058 -378 1114 -64 190 -226 638
-250 692 -57 127 -149 222 -269 277 -30 14 -122 44 -205 66 -82 23 -230 64
-327 91 -369 102 -544 151 -720 200 -101 28 -253 69 -339 93 -85 23 -176 54
-201 69 -128 75 -232 300 -215 464 12 119 95 241 199 294 36 18 112 44 140 48
4 1 53 -8 110 -19z"/>
</g>
</svg>
